<?xml version="1.0" encoding="utf-8"?>
<!-- Generator: Adobe Illustrator 15.0.0, SVG Export Plug-In  -->
<!DOCTYPE svg PUBLIC "-//W3C//DTD SVG 1.1//EN" "http://www.w3.org/Graphics/SVG/1.1/DTD/svg11.dtd" [
	<!ENTITY ns_flows "http://ns.adobe.com/Flows/1.0/">
]>
<svg version="1.1"
	 xmlns="http://www.w3.org/2000/svg" xmlns:xlink="http://www.w3.org/1999/xlink" xmlns:a="http://ns.adobe.com/AdobeSVGViewerExtensions/3.0/"
	 x="0px" y="0px" width="1024px" height="246px" viewBox="0 0 1024 246" overflow="visible" enable-background="new 0 0 1024 246"
	 xml:space="preserve">
<defs>
</defs>
<path fill="#FFFFFF" d="M53.844,53.449h37v52.858c-6,1.834-11.834,3.224-17.782,4.164c-5.947,0.938-12.956,1.412-20.785,1.412
	c-16.456,0-29.326-4.893-38.493-14.682C4.611,87.411,0,73.699,0,56.054c0-11.301,2.252-21.201,6.787-29.7
	c4.535-8.499,11.056-14.992,19.582-19.478c8.521-4.484,18.507-6.727,29.955-6.727c11.597,0,22.398,2.132,32.41,6.393l-4.907,11.151
	c-9.813-4.164-19.255-6.245-28.324-6.245c-13.232,0-23.566,3.94-31,11.82c-7.435,7.88-11.151,18.809-11.151,32.785
	c0,14.672,3.581,25.795,10.741,33.378c7.162,7.583,17.737,11.374,31.616,11.374c7.531,0,15.135-0.865,22.135-2.601V64.449h-24
	V53.449z"/>
<path fill="#FFFFFF" d="M188.844,110.449h-61v-109h61v11h-48v36h45v11h-45v40h48V110.449z"/>
<path fill="#FFFFFF" d="M308.844,110.449h-14.396l-59.399-91h-0.594c0.794,10,1.389,20.25,1.389,29.17v61.83h-12v-109h14.402
	l59.249,91h0.595c-0.098-1-0.424-5.583-0.771-12.845c-0.346-7.264-0.476-12.4-0.476-15.522V1.449h12V110.449z"/>
<path fill="#FFFFFF" d="M410.844,110.449h-61v-109h61v11h-48v36h45v11h-45v40h48V110.449z"/>
<path fill="#FFFFFF" d="M458.844,65.449v45h-13v-109h30.235c13.331,0,23.181,2.684,29.55,7.788
	c6.367,5.105,9.553,12.852,9.553,23.11c0,14.375-7.284,24.146-21.855,29.201l29.51,48.901h-14.938l-26.317-45H458.844z
	 M458.844,54.449h17.384c8.921,0,15.463-1.823,19.626-5.368c4.163-3.546,6.245-8.884,6.245-15.974
	c0-7.186-2.119-12.546-6.357-15.719c-4.235-3.172-11.038-4.94-20.405-4.94h-16.492V54.449z"/>
<path fill="#FFFFFF" d="M620.12,110.449l-13.529-35h-43.563l-13.381,35h-12.787l42.968-109h10.631l42.745,109H620.12z
	 M602.649,64.449l-12.638-33.674c-1.637-4.262-3.325-9.489-5.055-15.685c-1.096,4.758-2.655,9.985-4.683,15.684l-12.787,33.675
	H602.649z"/>
<path fill="#FFFFFF" d="M692.844,110.449h-12v-98h-35v-11h82v11h-35V110.449z"/>
<path fill="#FFFFFF" d="M754.844,110.449v-109h13v109H754.844z"/>
<path fill="#FFFFFF" d="M903.419,55.905c0,17.396-4.398,31.074-13.191,41.035c-8.8,9.963-21.031,14.943-36.69,14.943
	c-16.01,0-28.357-4.893-37.057-14.682c-8.698-9.79-13.05-23.604-13.05-41.445c0-17.692,4.359-31.408,13.083-41.147
	C825.241,4.869,837.629,0,853.686,0c15.611,0,27.805,4.957,36.575,14.869C899.033,24.781,903.419,38.462,903.419,55.905z
	 M816.813,55.905c0,14.718,3.136,25.885,9.408,33.491c6.265,7.606,15.374,11.41,27.315,11.41c12.042,0,21.141-3.792,27.281-11.374
	c6.145-7.583,9.221-18.757,9.221-33.527c0-14.618-3.062-25.708-9.178-33.268C874.738,15.08,865.683,11.3,853.686,11.3
	c-12.044,0-21.199,3.805-27.464,11.412C819.949,30.319,816.813,41.385,816.813,55.905z"/>
<path fill="#FFFFFF" d="M1023.844,110.449h-14.296l-59.397-91h-0.596c0.79,10,1.289,20.25,1.289,29.17v61.83h-12v-109h14.502
	l59.25,91h0.597c-0.104-1-0.481-5.583-0.825-12.845c-0.344-7.264-0.523-12.4-0.523-15.522V1.449h12V110.449z"/>
<path fill="#FFFFFF" d="M50.373,245.449l-26.168-85h-0.669c0.939,17,1.308,28.544,1.308,34.342v50.658h-20v-109h30.884l25.723,83
	h0.446l27.283-83h31.664v109h-22V193.9c0-2.428,0.149-5.111,0.223-8.29c0.075-3.168,0.521-12.162,1.115-25.162h-0.669l-28.027,85
	H50.373z"/>
<path fill="#FFFFFF" d="M210.844,245.449h-63v-109h63v19h-40v24h37v19h-37v28h40V245.449z"/>
<path fill="#FFFFFF" d="M295.844,245.449h-63v-109h63v19h-40v24h37v19h-37v28h40V245.449z"/>
<path fill="#FFFFFF" d="M360.844,245.449h-24v-90h-29v-19h82v19h-29V245.449z"/>
<path fill="#FFFFFF" d="M485.088,175.092c0,8.745-7.09,15.841-15.837,15.841c-3.333,0-6.428-1.034-8.973-2.784
	c-4.15-2.866-6.863-7.645-6.863-13.057c0-8.739,7.096-15.835,15.836-15.835c2.168,0,4.229,0.433,6.109,1.217
	C481.069,162.873,485.088,168.509,485.088,175.092z"/>
<rect x="453.844" y="202.449" fill="#FFFFFF" width="31" height="37"/>
<path fill="#FFFFFF" d="M534.322,147.74c0,8.745-7.09,15.835-15.835,15.835c-3.325,0-6.424-1.034-8.979-2.784
	c-4.143-2.86-6.856-7.645-6.856-13.051c0-8.751,7.087-15.848,15.835-15.848c2.169,0,4.227,0.44,6.107,1.229
	C530.317,135.508,534.322,141.151,534.322,147.74z"/>
<rect x="502.844" y="175.449" fill="#FFFFFF" width="31" height="64"/>
<path fill="#FFFFFF" d="M586.981,175.092c0,8.745-7.097,15.841-15.833,15.841c-3.337,0-6.428-1.034-8.98-2.784
	c-4.143-2.866-6.864-7.645-6.864-13.057c0-8.739,7.088-15.835,15.845-15.835c2.163,0,4.223,0.433,6.107,1.217
	C582.973,162.873,586.981,168.509,586.981,175.092z"/>
<rect x="554.844" y="202.449" fill="#FFFFFF" width="32" height="37"/>
<path fill="#FFFFFF" d="M586.978,175.092c0,8.745-7.089,15.841-15.837,15.841c-3.333,0-6.427-1.034-8.973-2.784
	c-4.149-2.866-6.864-7.645-6.864-13.057c0-8.739,7.098-15.835,15.837-15.835c2.169,0,4.23,0.433,6.109,1.217
	C582.959,162.873,586.978,168.509,586.978,175.092z"/>
<rect x="554.844" y="202.449" fill="#FFFFFF" width="32" height="37"/>
<path fill="#FFFFFF" d="M636.211,147.74c0,8.745-7.087,15.835-15.834,15.835c-3.323,0-6.424-1.034-8.978-2.784
	c-4.144-2.86-6.855-7.645-6.855-13.051c0-8.751,7.086-15.848,15.833-15.848c2.17,0,4.227,0.44,6.109,1.229
	C632.208,135.508,636.211,141.151,636.211,147.74z"/>
<rect x="604.844" y="175.449" fill="#FFFFFF" width="31" height="64"/>
<path fill="#FFFFFF" d="M688.871,175.092c0,8.745-7.096,15.841-15.833,15.841c-3.337,0-6.427-1.034-8.979-2.784
	c-4.144-2.866-6.864-7.645-6.864-13.057c0-8.739,7.086-15.835,15.843-15.835c2.165,0,4.225,0.433,6.109,1.217
	C684.864,162.873,688.871,168.509,688.871,175.092z"/>
<rect x="656.844" y="202.449" fill="#FFFFFF" width="32" height="37"/>
<path fill="#FFFFFF" d="M688.846,175.009c0,8.746-7.09,15.843-15.838,15.843c-3.332,0-6.428-1.035-8.972-2.786
	c-4.15-2.864-6.864-7.643-6.864-13.057c0-8.738,7.098-15.833,15.836-15.833c2.168,0,4.23,0.433,6.109,1.216
	C684.827,162.791,688.846,168.428,688.846,175.009z"/>
<rect x="656.844" y="202.449" fill="#FFFFFF" width="32" height="37"/>
<path fill="#FFFFFF" d="M738.078,147.659c0,8.746-7.089,15.836-15.833,15.836c-3.325,0-6.425-1.035-8.978-2.786
	c-4.144-2.858-6.858-7.643-6.858-13.05c0-8.751,7.087-15.847,15.836-15.847c2.169,0,4.227,0.438,6.109,1.23
	C734.076,135.429,738.078,141.07,738.078,147.659z"/>
<rect x="706.844" y="175.449" fill="#FFFFFF" width="31" height="64"/>
<path fill="#FFFFFF" d="M790.739,175.009c0,8.746-7.096,15.843-15.835,15.843c-3.335,0-6.428-1.035-8.977-2.786
	c-4.145-2.864-6.864-7.643-6.864-13.057c0-8.738,7.086-15.833,15.841-15.833c2.167,0,4.224,0.433,6.109,1.216
	C786.73,162.791,790.739,168.428,790.739,175.009z"/>
<rect x="758.844" y="202.449" fill="#FFFFFF" width="32" height="37"/>
<path fill="#FFFFFF" d="M790.735,175.009c0,8.746-7.09,15.843-15.837,15.843c-3.333,0-6.428-1.035-8.971-2.786
	c-4.15-2.864-6.864-7.643-6.864-13.057c0-8.738,7.096-15.833,15.835-15.833c2.169,0,4.229,0.433,6.109,1.216
	C786.719,162.791,790.735,168.428,790.735,175.009z"/>
<rect x="758.844" y="202.449" fill="#FFFFFF" width="32" height="37"/>
<path fill="#FFFFFF" d="M839.97,147.659c0,8.746-7.089,15.836-15.835,15.836c-3.324,0-6.425-1.035-8.979-2.786
	c-4.144-2.858-6.855-7.643-6.855-13.05c0-8.751,7.087-15.847,15.834-15.847c2.171,0,4.229,0.438,6.109,1.23
	C835.965,135.429,839.97,141.07,839.97,147.659z"/>
<rect x="807.844" y="175.449" fill="#FFFFFF" width="32" height="64"/>
<path fill="#FFFFFF" d="M892.631,175.009c0,8.746-7.098,15.843-15.837,15.843c-3.333,0-6.426-1.035-8.976-2.786
	c-4.146-2.864-6.863-7.643-6.863-13.057c0-8.738,7.086-15.833,15.839-15.833c2.169,0,4.225,0.433,6.109,1.216
	C888.622,162.791,892.631,168.428,892.631,175.009z"/>
<rect x="860.844" y="202.449" fill="#FFFFFF" width="32" height="37"/>
<path fill="#FFFFFF" d="M892.627,175.009c0,8.746-7.09,15.843-15.841,15.843c-3.329,0-6.424-1.035-8.968-2.786
	c-4.151-2.864-6.863-7.643-6.863-13.057c0-8.738,7.096-15.833,15.831-15.833c2.173,0,4.232,0.433,6.113,1.216
	C888.609,162.791,892.627,168.428,892.627,175.009z"/>
<rect x="860.844" y="202.449" fill="#FFFFFF" width="32" height="37"/>
<path fill="#FFFFFF" d="M941.861,147.659c0,8.746-7.089,15.836-15.835,15.836c-3.325,0-6.425-1.035-8.979-2.786
	c-4.144-2.858-6.855-7.643-6.855-13.05c0-8.751,7.087-15.847,15.834-15.847c2.169,0,4.227,0.438,6.109,1.23
	C937.856,135.429,941.861,141.07,941.861,147.659z"/>
<rect x="909.844" y="175.449" fill="#FFFFFF" width="32" height="64"/>
<path fill="#FFFFFF" d="M994.522,175.009c0,8.746-7.098,15.843-15.837,15.843c-3.333,0-6.426-1.035-8.979-2.786
	c-4.142-2.864-6.859-7.643-6.859-13.057c0-8.738,7.085-15.833,15.839-15.833c2.166,0,4.223,0.433,6.109,1.216
	C990.513,162.791,994.522,168.428,994.522,175.009z"/>
<rect x="962.844" y="202.449" fill="#FFFFFF" width="32" height="37"/>
</svg>
