<?xml version="1.0" encoding="utf-8"?>
<!-- Generator: Adobe Illustrator 15.0.0, SVG Export Plug-In  -->
<!DOCTYPE svg PUBLIC "-//W3C//DTD SVG 1.1//EN" "http://www.w3.org/Graphics/SVG/1.1/DTD/svg11.dtd" [
	<!ENTITY ns_flows "http://ns.adobe.com/Flows/1.0/">
]>
<svg version="1.1"
	 xmlns="http://www.w3.org/2000/svg" xmlns:xlink="http://www.w3.org/1999/xlink" xmlns:a="http://ns.adobe.com/AdobeSVGViewerExtensions/3.0/"
	 x="0px" y="0px" width="1025px" height="173px" viewBox="-1 -1 1025 173"
	 overflow="visible" enable-background="new -1 -1 1025 173" xml:space="preserve">
<defs>
</defs>
<path fill="#FFFFFF" d="M57.059,22.459v5.794l-11.202,1.324c1.029,1.287,1.949,2.97,2.759,5.047
	c0.809,2.082,1.214,4.425,1.214,7.039c0,5.922-2.024,10.65-6.07,14.182c-4.047,3.532-9.602,5.298-16.666,5.298
	c-1.803,0-3.495-0.148-5.077-0.441c-3.9,2.059-5.849,4.653-5.849,7.781c0,1.655,0.68,2.879,2.042,3.667
	c1.361,0.792,3.697,1.189,7.008,1.189h10.706c6.548,0,11.578,1.379,15.092,4.139c3.513,2.759,5.27,6.768,5.27,12.03
	c0,6.692-2.686,11.799-8.057,15.311c-5.372,3.514-13.208,5.272-23.508,5.272c-7.91,0-14.008-1.475-18.293-4.415
	C2.142,102.73,0,98.571,0,93.204c0-3.682,1.177-6.863,3.532-9.546c2.354-2.687,5.665-4.508,9.933-5.463
	c-1.545-0.7-2.842-1.786-3.891-3.256c-1.048-1.472-1.572-3.183-1.572-5.132c0-2.208,0.588-4.139,1.766-5.794
	c1.176-1.656,3.035-3.256,5.573-4.801c-3.128-1.289-5.675-3.477-7.643-6.567c-1.969-3.09-2.952-6.622-2.952-10.595
	c0-6.622,1.986-11.729,5.959-15.316s9.602-5.378,16.886-5.378c3.163,0,6.015,0.366,8.553,1.104H57.059z M8.83,93.093
	c0,3.271,1.379,5.754,4.139,7.45c2.759,1.691,6.713,2.539,11.864,2.539c7.688,0,13.382-1.151,17.079-3.452
	c3.697-2.297,5.546-5.418,5.546-9.351c0-3.276-1.012-5.548-3.035-6.817C42.398,82.192,38.591,81.56,33,81.56H22.018
	c-4.158,0-7.395,0.993-9.712,2.98C9.988,86.526,8.83,89.376,8.83,93.093z M13.796,41.829c0,4.229,1.195,7.43,3.587,9.602
	c2.391,2.17,5.72,3.256,9.988,3.256c8.939,0,13.409-4.342,13.409-13.023c0-9.088-4.525-13.63-13.575-13.63
	c-4.304,0-7.615,1.159-9.933,3.477C14.955,33.827,13.796,37.266,13.796,41.829z"/>
<path fill="#FFFFFF" d="M95.025,84.043c-8.939,0-15.995-2.724-21.163-8.167c-5.169-5.446-7.753-13.006-7.753-22.68
	c0-9.75,2.4-17.493,7.201-23.232c4.801-5.739,11.248-8.609,19.342-8.609c7.578,0,13.575,2.493,17.989,7.475
	c4.415,4.986,6.622,11.563,6.622,19.73v5.794H75.601c0.183,7.099,1.977,12.489,5.38,16.168c3.401,3.677,8.195,5.519,14.375,5.519
	c6.511,0,12.95-1.362,19.314-4.083v8.167c-3.238,1.397-6.301,2.398-9.188,3.005C102.593,83.737,99.108,84.043,95.025,84.043z
	 M92.542,29.026c-4.856,0-8.729,1.581-11.616,4.746c-2.89,3.163-4.59,7.54-5.104,13.133h31.62c0-5.777-1.287-10.199-3.863-13.274
	C101.002,30.561,97.325,29.026,92.542,29.026z"/>
<path fill="#FFFFFF" d="M174.268,82.94V43.815c0-4.931-1.121-8.608-3.366-11.037c-2.245-2.428-5.756-3.642-10.54-3.642
	c-6.329,0-10.964,1.711-13.906,5.132s-4.415,9.067-4.415,16.941v31.73h-9.16v-60.48h7.449l1.49,8.277h0.441
	c1.876-2.98,4.507-5.288,7.891-6.928c3.384-1.635,7.156-2.453,11.312-2.453c7.284,0,12.765,1.756,16.444,5.268
	c3.68,3.517,5.519,9.135,5.519,16.861V82.94H174.268z"/>
<path fill="#FFFFFF" d="M227.795,84.043c-8.939,0-15.995-2.724-21.163-8.167c-5.169-5.446-7.753-13.006-7.753-22.68
	c0-9.75,2.4-17.493,7.201-23.232c4.801-5.739,11.248-8.609,19.342-8.609c7.578,0,13.575,2.493,17.99,7.475
	c4.415,4.986,6.622,11.563,6.622,19.73v5.794h-41.663c0.183,7.099,1.977,12.489,5.38,16.168c3.401,3.677,8.195,5.519,14.375,5.519
	c6.512,0,12.951-1.362,19.314-4.083v8.167c-3.238,1.397-6.301,2.398-9.188,3.005C235.363,83.737,231.879,84.043,227.795,84.043z
	 M225.312,29.026c-4.856,0-8.729,1.581-11.616,4.746c-2.89,3.163-4.59,7.54-5.104,13.133h31.62c0-5.777-1.287-10.199-3.863-13.274
	C233.772,30.561,230.095,29.026,225.312,29.026z"/>
<path fill="#FFFFFF" d="M293.242,21.355c2.687,0,5.094,0.221,7.229,0.662l-1.269,8.499c-2.5-0.552-4.708-0.828-6.622-0.828
	c-4.894,0-9.078,1.987-12.554,5.96s-5.215,8.919-5.215,14.844V82.94h-9.161v-60.48h7.561l1.048,11.202h0.441
	c2.245-3.938,4.949-6.973,8.112-9.105C285.976,22.421,289.452,21.355,293.242,21.355z"/>
<path fill="#FFFFFF" d="M348.977,82.94l-1.821-8.609h-0.441c-3.018,3.788-6.025,6.356-9.022,7.696c-3,1.344-6.743,2.017-11.23,2.017
	c-5.997,0-10.698-1.545-14.099-4.635c-3.404-3.09-5.104-7.488-5.104-13.189c0-12.215,9.767-18.617,29.302-19.204l10.264-0.331
	v-3.752c0-4.746-1.021-8.252-3.063-10.515c-2.042-2.263-5.308-3.392-9.795-3.392c-5.039,0-10.743,1.545-17.106,4.636l-2.814-7.008
	c2.98-1.621,6.243-2.89,9.795-3.808c3.549-0.921,7.108-1.38,10.678-1.38c7.212,0,12.555,1.601,16.031,4.801
	c3.477,3.2,5.215,8.333,5.215,15.396V82.94H348.977z M328.283,76.483c5.701,0,10.181-1.565,13.437-4.69
	c3.256-3.128,4.884-7.505,4.884-13.134v-5.463l-9.161,0.386c-7.284,0.256-12.536,1.39-15.754,3.391
	c-3.221,2.007-4.829,5.125-4.829,9.356c0,3.311,1.001,5.83,3.007,7.56C321.872,75.618,324.679,76.483,328.283,76.483z"/>
<path fill="#FFFFFF" d="M394.171,76.483c1.618,0,3.183-0.121,4.691-0.361c1.507-0.236,2.704-0.487,3.587-0.743v7.008
	c-0.994,0.477-2.456,0.873-4.387,1.184c-1.932,0.313-3.669,0.472-5.215,0.472c-11.699,0-17.548-6.163-17.548-18.486V29.578h-8.664
	v-4.415l8.664-3.808l3.863-12.913h5.298v14.017h17.548v7.118h-17.548v35.593c0,3.642,0.865,6.436,2.593,8.388
	C388.781,75.507,391.154,76.483,394.171,76.483z"/>
<path fill="#FFFFFF" d="M413.762,6.07c0-2.097,0.514-3.632,1.545-4.61C416.337,0.486,417.624,0,419.169,0
	c1.472,0,2.742,0.497,3.808,1.49s1.6,2.519,1.6,4.58c0,2.06-0.534,3.597-1.6,4.605c-1.066,1.013-2.335,1.52-3.808,1.52
	c-1.545,0-2.832-0.507-3.863-1.52C414.275,9.667,413.762,8.129,413.762,6.07z M423.694,82.94h-9.16v-60.48h9.16V82.94z"/>
<path fill="#FFFFFF" d="M495.322,52.644c0,9.858-2.483,17.559-7.45,23.092c-4.967,5.538-11.829,8.308-20.583,8.308
	c-5.408,0-10.209-1.27-14.403-3.808c-4.194-2.539-7.432-6.181-9.712-10.926c-2.282-4.746-3.421-10.302-3.421-16.666
	c0-9.86,2.463-17.538,7.395-23.041c4.929-5.499,11.771-8.248,20.528-8.248c8.46,0,15.183,2.814,20.169,8.443
	C492.828,35.427,495.322,43.042,495.322,52.644z M449.244,52.644c0,7.726,1.545,13.61,4.635,17.659
	c3.09,4.046,7.633,6.07,13.63,6.07c5.995,0,10.547-2.017,13.657-6.045c3.108-4.028,4.663-9.923,4.663-17.684
	c0-7.69-1.555-13.53-4.663-17.523c-3.11-3.988-7.698-5.985-13.768-5.985c-5.998,0-10.522,1.967-13.575,5.905
	C450.769,38.977,449.244,44.843,449.244,52.644z"/>
<path fill="#FFFFFF" d="M552.768,82.94V43.815c0-4.931-1.124-8.608-3.366-11.037c-2.245-2.428-5.76-3.642-10.54-3.642
	c-6.329,0-10.964,1.711-13.906,5.132c-2.945,3.421-4.415,9.067-4.415,16.941v31.73h-9.16v-60.48h7.45l1.489,8.277h0.441
	c1.877-2.98,4.505-5.288,7.892-6.928c3.384-1.635,7.153-2.453,11.312-2.453c7.284,0,12.765,1.756,16.444,5.268
	c3.677,3.517,5.519,9.135,5.519,16.861V82.94H552.768z"/>
<path fill="#FFFFFF" d="M687.192,82.94V43.594c0-4.821-1.03-8.433-3.09-10.846c-2.062-2.408-5.263-3.612-9.602-3.612
	c-5.704,0-9.916,1.636-12.638,4.912c-2.724,3.273-4.083,8.312-4.083,15.12V82.94h-9.16V43.594c0-4.821-1.031-8.433-3.091-10.846
	c-2.062-2.408-5.279-3.612-9.656-3.612c-5.739,0-9.943,1.721-12.609,5.157c-2.669,3.441-4.001,9.08-4.001,16.916v31.73h-9.16v-60.48
	h7.449l1.49,8.277h0.441c1.729-2.945,4.166-5.243,7.312-6.898c3.146-1.656,6.667-2.483,10.567-2.483
	c9.454,0,15.635,3.421,18.542,10.264h0.441c1.801-3.166,4.414-5.667,7.836-7.505c3.421-1.841,7.319-2.759,11.698-2.759
	c6.843,0,11.965,1.756,15.369,5.268c3.401,3.517,5.104,9.135,5.104,16.861V82.94H687.192z"/>
<path fill="#FFFFFF" d="M740.775,84.043c-8.939,0-15.996-2.724-21.163-8.167c-5.169-5.446-7.753-13.006-7.753-22.68
	c0-9.75,2.4-17.493,7.201-23.232c4.801-5.739,11.248-8.609,19.342-8.609c7.578,0,13.575,2.493,17.99,7.475
	c4.414,4.986,6.621,11.563,6.621,19.73v5.794h-41.663c0.184,7.099,1.977,12.489,5.381,16.168c3.401,3.677,8.194,5.519,14.375,5.519
	c6.512,0,12.948-1.362,19.313-4.083v8.167c-3.238,1.397-6.301,2.398-9.188,3.005C748.343,83.737,744.858,84.043,740.775,84.043z
	 M738.292,29.026c-4.856,0-8.729,1.581-11.616,4.746c-2.89,3.163-4.59,7.54-5.104,13.133h31.62c0-5.777-1.289-10.199-3.863-13.274
	C746.753,30.561,743.073,29.026,738.292,29.026z"/>
<path fill="#FFFFFF" d="M804.178,84.043c-8.939,0-15.993-2.724-21.16-8.167c-5.17-5.446-7.753-13.006-7.753-22.68
	c0-9.75,2.4-17.493,7.201-23.232c4.801-5.739,11.247-8.609,19.339-8.609c7.58,0,13.575,2.493,17.99,7.475
	c4.417,4.986,6.624,11.563,6.624,19.73v5.794h-41.665c0.186,7.099,1.977,12.489,5.383,16.168c3.4,3.677,8.191,5.519,14.372,5.519
	c6.512,0,12.948-1.362,19.316-4.083v8.167c-3.238,1.397-6.303,2.398-9.188,3.005C811.748,83.737,808.262,84.043,804.178,84.043z
	 M801.694,29.026c-4.855,0-8.729,1.581-11.613,4.746c-2.89,3.163-4.59,7.54-5.106,13.133h31.619c0-5.777-1.289-10.199-3.862-13.274
	C810.158,30.561,806.476,29.026,801.694,29.026z"/>
<path fill="#FFFFFF" d="M861.57,76.483c1.615,0,3.181-0.121,4.69-0.361c1.505-0.236,2.704-0.487,3.587-0.743v7.008
	c-0.993,0.477-2.458,0.873-4.389,1.184c-1.932,0.313-3.668,0.472-5.213,0.472c-11.698,0-17.548-6.163-17.548-18.486V29.578h-8.664
	v-4.415l8.664-3.808l3.862-12.913h5.298v14.017h17.548v7.118h-17.548v35.593c0,3.642,0.863,6.436,2.594,8.388
	C856.178,75.507,858.551,76.483,861.57,76.483z"/>
<path fill="#FFFFFF" d="M362,157.512c-4.776,0-8.473-1.47-11.092-4.41c-2.619-2.939-3.928-7.098-3.928-12.476
	c0-5.519,1.33-9.783,3.988-12.792s6.446-4.515,11.363-4.515c1.585,0,3.17,0.171,4.756,0.512c1.585,0.341,2.829,0.743,3.732,1.204
	l-1.535,4.244c-1.104-0.441-2.308-0.808-3.612-1.099c-1.304-0.291-2.458-0.437-3.461-0.437c-6.702,0-10.053,4.274-10.053,12.823
	c0,4.053,0.818,7.164,2.453,9.331c1.636,2.167,4.059,3.251,7.269,3.251c2.75,0,5.569-0.592,8.458-1.776v4.425
	C368.13,156.94,365.351,157.512,362,157.512z"/>
<path fill="#FFFFFF" d="M406.638,140.385c0,5.377-1.354,9.577-4.063,12.597s-6.451,4.53-11.227,4.53
	c-2.95,0-5.568-0.692-7.856-2.077c-2.288-1.385-4.054-3.371-5.298-5.96c-1.244-2.588-1.866-5.619-1.866-9.09
	c0-5.378,1.345-9.567,4.034-12.567s6.421-4.5,11.197-4.5c4.616,0,8.283,1.535,11.002,4.605
	C405.278,130.994,406.638,135.148,406.638,140.385z M381.504,140.385c0,4.214,0.843,7.424,2.529,9.632
	c1.686,2.207,4.164,3.311,7.435,3.311c3.271,0,5.754-1.099,7.449-3.296c1.696-2.197,2.544-5.413,2.544-9.647
	c0-4.194-0.848-7.38-2.544-9.557c-1.695-2.177-4.199-3.266-7.51-3.266c-3.271,0-5.739,1.074-7.404,3.221
	S381.504,136.131,381.504,140.385z"/>
<path fill="#FFFFFF" d="M437.972,156.91v-21.34c0-2.689-0.612-4.696-1.836-6.02c-1.224-1.325-3.141-1.987-5.749-1.987
	c-3.452,0-5.98,0.933-7.585,2.799c-1.605,1.866-2.408,4.946-2.408,9.241v17.307h-4.997V123.92h4.063l0.812,4.515h0.241
	c1.023-1.625,2.458-2.885,4.305-3.778c1.846-0.893,3.903-1.339,6.17-1.339c3.974,0,6.963,0.958,8.97,2.875
	c2.007,1.917,3.01,4.981,3.01,9.196v21.521H437.972z"/>
<path fill="#FFFFFF" d="M475.807,156.91v-21.34c0-2.689-0.612-4.696-1.836-6.02c-1.224-1.325-3.141-1.987-5.75-1.987
	c-3.451,0-5.979,0.933-7.585,2.799s-2.408,4.946-2.408,9.241v17.307h-4.997V123.92h4.063l0.812,4.515h0.241
	c1.023-1.625,2.458-2.885,4.304-3.778c1.846-0.893,3.903-1.339,6.171-1.339c3.973,0,6.963,0.958,8.97,2.875
	c2.007,1.917,3.01,4.981,3.01,9.196v21.521H475.807z"/>
<path fill="#FFFFFF" d="M505.004,157.512c-4.876,0-8.724-1.485-11.543-4.455s-4.229-7.094-4.229-12.371
	c0-5.317,1.31-9.542,3.929-12.672c2.618-3.13,6.135-4.696,10.55-4.696c4.134,0,7.404,1.36,9.812,4.079
	c2.407,2.719,3.611,6.306,3.611,10.761v3.161h-22.725c0.1,3.873,1.078,6.812,2.935,8.819c1.855,2.007,4.47,3.01,7.841,3.01
	c3.552,0,7.063-0.743,10.535-2.228v4.455c-1.767,0.763-3.437,1.31-5.012,1.641S507.231,157.512,505.004,157.512z M503.649,127.502
	c-2.648,0-4.761,0.863-6.336,2.588c-1.575,1.726-2.503,4.114-2.784,7.164h17.247c0-3.151-0.702-5.563-2.107-7.239
	C508.265,128.34,506.258,127.502,503.649,127.502z"/>
<path fill="#FFFFFF" d="M538.836,157.512c-4.775,0-8.473-1.47-11.092-4.41c-2.618-2.939-3.928-7.098-3.928-12.476
	c0-5.519,1.329-9.783,3.988-12.792c2.658-3.01,6.446-4.515,11.362-4.515c1.585,0,3.171,0.171,4.756,0.512
	c1.585,0.341,2.829,0.743,3.732,1.204l-1.535,4.244c-1.104-0.441-2.308-0.808-3.612-1.099c-1.304-0.291-2.458-0.437-3.461-0.437
	c-6.702,0-10.054,4.274-10.054,12.823c0,4.053,0.817,7.164,2.453,9.331c1.636,2.167,4.059,3.251,7.27,3.251
	c2.749,0,5.568-0.592,8.458-1.776v4.425C544.967,156.94,542.188,157.512,538.836,157.512z"/>
<path fill="#FFFFFF" d="M565.655,153.388c0.883,0,1.735-0.065,2.558-0.196c0.823-0.13,1.476-0.266,1.957-0.406v3.823
	c-0.542,0.261-1.34,0.477-2.393,0.647c-1.054,0.171-2.002,0.256-2.845,0.256c-6.381,0-9.572-3.361-9.572-10.083v-19.625h-4.726
	v-2.408l4.726-2.077l2.107-7.043h2.89v7.645h9.571v3.883h-9.571v19.415c0,1.986,0.472,3.512,1.414,4.575
	C562.715,152.856,564.01,153.388,565.655,153.388z"/>
<path fill="#FFFFFF" d="M576.34,114.981c0-1.144,0.281-1.981,0.844-2.513c0.562-0.532,1.264-0.798,2.106-0.798
	c0.803,0,1.495,0.271,2.077,0.812c0.582,0.542,0.873,1.375,0.873,2.499c0,1.124-0.291,1.961-0.873,2.513s-1.274,0.828-2.077,0.828
	c-0.843,0-1.545-0.276-2.106-0.828C576.621,116.942,576.34,116.104,576.34,114.981z M581.758,156.91h-4.996V123.92h4.996V156.91z"/>
<path fill="#FFFFFF" d="M614.928,156.91v-21.34c0-2.689-0.611-4.696-1.836-6.02c-1.224-1.325-3.141-1.987-5.749-1.987
	c-3.451,0-5.979,0.933-7.585,2.799s-2.408,4.946-2.408,9.241v17.307h-4.996V123.92h4.063l0.812,4.515h0.241
	c1.023-1.625,2.458-2.885,4.304-3.778c1.847-0.893,3.903-1.339,6.171-1.339c3.973,0,6.963,0.958,8.97,2.875
	c2.007,1.917,3.01,4.981,3.01,9.196v21.521H614.928z"/>
<path fill="#FFFFFF" d="M657.188,123.92v3.161l-6.11,0.722c0.562,0.703,1.063,1.621,1.505,2.754s0.662,2.413,0.662,3.837
	c0,3.231-1.104,5.81-3.311,7.736c-2.208,1.926-5.237,2.89-9.091,2.89c-0.982,0-1.906-0.081-2.769-0.241
	c-2.127,1.124-3.19,2.538-3.19,4.244c0,0.903,0.371,1.57,1.113,2.001c0.742,0.431,2.017,0.647,3.822,0.647h5.84
	c3.572,0,6.315,0.752,8.232,2.258c1.916,1.505,2.874,3.692,2.874,6.562c0,3.652-1.465,6.437-4.395,8.353
	c-2.93,1.917-7.204,2.875-12.822,2.875c-4.314,0-7.641-0.802-9.978-2.408c-2.338-1.605-3.507-3.873-3.507-6.803
	c0-2.006,0.642-3.742,1.926-5.207s3.091-2.458,5.418-2.98c-0.843-0.381-1.55-0.973-2.122-1.776
	c-0.571-0.803-0.857-1.736-0.857-2.799c0-1.204,0.321-2.257,0.963-3.161c0.643-0.903,1.655-1.776,3.04-2.619
	c-1.705-0.702-3.095-1.896-4.169-3.582c-1.073-1.686-1.61-3.612-1.61-5.779c0-3.612,1.084-6.396,3.251-8.353
	c2.167-1.957,5.237-2.935,9.211-2.935c1.726,0,3.28,0.201,4.665,0.602H657.188z M630.881,162.448c0,1.786,0.753,3.14,2.258,4.063
	c1.505,0.923,3.662,1.384,6.472,1.384c4.193,0,7.299-0.627,9.315-1.881c2.017-1.254,3.025-2.955,3.025-5.102
	c0-1.786-0.552-3.025-1.656-3.717c-1.104-0.692-3.18-1.039-6.23-1.039h-5.989c-2.268,0-4.034,0.542-5.298,1.625
	S630.881,160.421,630.881,162.448z M633.59,134.485c0,2.308,0.652,4.054,1.957,5.237c1.304,1.184,3.12,1.776,5.447,1.776
	c4.877,0,7.314-2.368,7.314-7.104c0-4.956-2.468-7.435-7.404-7.435c-2.348,0-4.154,0.632-5.418,1.896S633.59,131.997,633.59,134.485
	z"/>
<path fill="#FFFFFF" d="M695.324,157.512c-2.146,0-4.108-0.396-5.884-1.189c-1.776-0.792-3.267-2.012-4.47-3.657h-0.361
	c0.24,1.927,0.361,3.753,0.361,5.479v13.575h-4.997V123.92h4.063l0.692,4.515h0.241c1.284-1.806,2.779-3.11,4.484-3.913
	c1.706-0.803,3.662-1.204,5.869-1.204c4.375,0,7.751,1.495,10.129,4.485c2.378,2.99,3.566,7.184,3.566,12.582
	c0,5.418-1.209,9.627-3.627,12.626C702.975,156.012,699.619,157.512,695.324,157.512z M694.603,127.562
	c-3.371,0-5.81,0.933-7.314,2.799s-2.277,4.836-2.317,8.91v1.114c0,4.635,0.772,7.951,2.317,9.948s4.023,2.995,7.435,2.995
	c2.85,0,5.082-1.154,6.697-3.461s2.423-5.488,2.423-9.542c0-4.113-0.808-7.269-2.423-9.466S697.532,127.562,694.603,127.562z"/>
<path fill="#FFFFFF" d="M731.686,157.512c-4.877,0-8.725-1.485-11.544-4.455s-4.229-7.094-4.229-12.371
	c0-5.317,1.31-9.542,3.928-12.672c2.619-3.13,6.136-4.696,10.55-4.696c4.134,0,7.404,1.36,9.812,4.079
	c2.408,2.719,3.612,6.306,3.612,10.761v3.161H721.09c0.101,3.873,1.079,6.812,2.935,8.819c1.856,2.007,4.47,3.01,7.841,3.01
	c3.553,0,7.064-0.743,10.535-2.228v4.455c-1.766,0.763-3.437,1.31-5.012,1.641S733.912,157.512,731.686,157.512z M730.331,127.502
	c-2.649,0-4.761,0.863-6.337,2.588c-1.574,1.726-2.503,4.114-2.783,7.164h17.247c0-3.151-0.703-5.563-2.107-7.239
	C734.946,128.34,732.939,127.502,730.331,127.502z"/>
<path fill="#FFFFFF" d="M780.806,140.385c0,5.377-1.353,9.577-4.062,12.597s-6.451,4.53-11.227,4.53
	c-2.95,0-5.568-0.692-7.856-2.077c-2.287-1.385-4.054-3.371-5.298-5.96c-1.244-2.588-1.865-5.619-1.865-9.09
	c0-5.378,1.344-9.567,4.033-12.567c2.688-3,6.421-4.5,11.197-4.5c4.615,0,8.282,1.535,11.001,4.605S780.806,135.148,780.806,140.385
	z M755.675,140.385c0,4.214,0.843,7.424,2.528,9.632c1.686,2.207,4.164,3.311,7.435,3.311s5.754-1.099,7.45-3.296
	c1.695-2.197,2.543-5.413,2.543-9.647c0-4.194-0.848-7.38-2.543-9.557c-1.696-2.177-4.199-3.266-7.511-3.266
	c-3.271,0-5.738,1.074-7.404,3.221C756.508,132.93,755.675,136.131,755.675,140.385z"/>
<path fill="#FFFFFF" d="M804.915,157.512c-2.146,0-4.108-0.396-5.884-1.189c-1.776-0.792-3.267-2.012-4.471-3.657h-0.36
	c0.24,1.927,0.36,3.753,0.36,5.479v13.575h-4.996V123.92h4.063l0.692,4.515h0.24c1.285-1.806,2.779-3.11,4.485-3.913
	s3.662-1.204,5.869-1.204c4.375,0,7.751,1.495,10.129,4.485c2.378,2.99,3.566,7.184,3.566,12.582c0,5.418-1.209,9.627-3.627,12.626
	C812.565,156.012,809.21,157.512,804.915,157.512z M804.193,127.562c-3.371,0-5.81,0.933-7.314,2.799s-2.277,4.836-2.318,8.91v1.114
	c0,4.635,0.773,7.951,2.318,9.948s4.023,2.995,7.435,2.995c2.85,0,5.082-1.154,6.697-3.461s2.423-5.488,2.423-9.542
	c0-4.113-0.808-7.269-2.423-9.466S807.123,127.562,804.193,127.562z"/>
<path fill="#FFFFFF" d="M832.339,156.91h-4.997v-46.835h4.997V156.91z"/>
<path fill="#FFFFFF" d="M856.87,157.512c-4.876,0-8.724-1.485-11.543-4.455s-4.229-7.094-4.229-12.371
	c0-5.317,1.31-9.542,3.928-12.672c2.619-3.13,6.136-4.696,10.551-4.696c4.133,0,7.404,1.36,9.812,4.079
	c2.407,2.719,3.611,6.306,3.611,10.761v3.161h-22.725c0.1,3.873,1.078,6.812,2.935,8.819c1.855,2.007,4.47,3.01,7.841,3.01
	c3.552,0,7.063-0.743,10.535-2.228v4.455c-1.767,0.763-3.437,1.31-5.012,1.641S859.098,157.512,856.87,157.512z M855.516,127.502
	c-2.648,0-4.761,0.863-6.336,2.588c-1.575,1.726-2.504,4.114-2.784,7.164h17.247c0-3.151-0.702-5.563-2.107-7.239
	C860.131,128.34,858.124,127.502,855.516,127.502z"/>
<path fill="#FFFFFF" d="M939.193,65.755l24.576,38.811h0.296l23.252-38.811h32.528v105.083h-21.637V96.367h-0.297l-25.75,41.016
	h-17.809l-25.761-40.276h-0.291v73.732H906.67V65.755H939.193z"/>
<path fill="#FFFFFF" d="M940.838,28.098c0,10.693-8.668,19.364-19.369,19.364c-4.073,0-7.855-1.256-10.976-3.406
	c-5.067-3.494-8.388-9.341-8.388-15.958c0-10.703,8.668-19.372,19.363-19.372c2.649,0,5.173,0.529,7.476,1.495
	C935.932,13.141,940.838,20.049,940.838,28.098z"/>
<path fill="#FFFFFF" d="M1024.004,28.098c0,10.693-8.669,19.364-19.364,19.364c-4.073,0-7.861-1.256-10.981-3.406
	c-5.066-3.494-8.388-9.341-8.388-15.958c0-10.703,8.669-19.372,19.369-19.372c2.649,0,5.167,0.529,7.47,1.495
	C1019.098,13.141,1024.004,20.049,1024.004,28.098z"/>
</svg>
